<svg width="36" height="36" viewBox="0 0 36 36" fill="none" xmlns="http://www.w3.org/2000/svg">
<g clip-path="url(#clip0_0_66)">
<path d="M17.937 36.0123L16.8914 35.116C15.45 33.909 2.86353 23.0389 2.86353 15.0877C2.86353 6.76282 9.61219 0.0141602 17.937 0.0141602C26.2619 0.0141602 33.0106 6.76282 33.0106 15.0877C33.0106 23.039 20.4241 33.9091 18.9886 35.122L17.937 36.0123ZM17.937 3.2735C11.4154 3.28088 6.13031 8.56592 6.12293 15.0876C6.12293 20.0828 13.8666 28.0624 17.937 31.7146C22.0076 28.0609 29.7512 20.0767 29.7512 15.0876C29.7438 8.56592 24.4588 3.28095 17.937 3.2735Z" fill="#EFEFEF"/>
<path d="M17.9369 21.0628C14.637 21.0628 11.9619 18.3877 11.9619 15.0878C11.9619 11.7879 14.637 9.11279 17.9369 9.11279C21.2368 9.11279 23.9119 11.7879 23.9119 15.0878C23.9119 18.3877 21.2369 21.0628 17.9369 21.0628ZM17.9369 12.1002C16.287 12.1002 14.9494 13.4378 14.9494 15.0877C14.9494 16.7377 16.287 18.0752 17.9369 18.0752C19.5869 18.0752 20.9244 16.7377 20.9244 15.0877C20.9244 13.4378 19.587 12.1002 17.9369 12.1002Z" fill="#EFEFEF"/>
</g>
<defs>
<clipPath id="clip0_0_66">
<rect width="36" height="36" fill="white"/>
</clipPath>
</defs>
</svg>
