<svg width="41" height="41" viewBox="0 0 41 41" fill="none" xmlns="http://www.w3.org/2000/svg">
<g clip-path="url(#clip0_0_36)">
<path d="M35.7742 13.6667C34.9217 5.99113 28.401 0 20.5 0C12.5989 0 6.07824 5.99113 5.22578 13.6667H-0.0358887L3.24069 36.601C3.59944 39.1089 5.77928 41 8.31445 41H32.6855C35.219 41 37.4005 39.1089 37.7593 36.601L41.0359 13.6667H35.7759H35.7742ZM20.5 3.41667C26.5116 3.41667 31.488 7.88225 32.3217 13.6667H8.67832C9.51199 7.88225 14.4884 3.41667 20.5 3.41667ZM34.3751 36.1176C34.2572 36.953 33.5294 37.5833 32.6855 37.5833H8.31445C7.47053 37.5833 6.74278 36.953 6.6249 36.1176L3.90524 17.0833H37.0947L34.3751 36.1176ZM22.2083 34.1667H18.7917V20.5H22.2083V34.1667ZM30.75 34.1667H27.3333V20.5H30.75V34.1667ZM13.6667 34.1667H10.25V20.5H13.6667V34.1667Z" fill="#272727"/>
</g>
<defs>
<clipPath id="clip0_0_36">
<rect width="41" height="41" fill="white"/>
</clipPath>
</defs>
</svg>
