<svg width="60" height="60" viewBox="0 0 60 60" fill="none" xmlns="http://www.w3.org/2000/svg">
<g clip-path="url(#clip0_0_74)">
<path d="M30 5.405C38.01 5.405 38.96 5.435 42.1225 5.58C45.3925 5.73 48.76 6.475 51.1425 8.8575C53.5475 11.2625 54.27 14.5975 54.42 17.8775C54.565 21.04 54.595 21.99 54.595 30C54.595 38.01 54.565 38.96 54.42 42.1225C54.2725 45.375 53.51 48.775 51.1425 51.1425C48.7375 53.5475 45.405 54.27 42.1225 54.42C38.96 54.565 38.01 54.595 30 54.595C21.99 54.595 21.04 54.565 17.8775 54.42C14.65 54.2725 11.205 53.4925 8.8575 51.1425C6.465 48.75 5.73 45.3825 5.58 42.1225C5.435 38.96 5.405 38.01 5.405 30C5.405 21.99 5.435 21.04 5.58 17.8775C5.7275 14.6375 6.4975 11.2175 8.8575 8.8575C11.2575 6.4575 14.605 5.73 17.8775 5.58C21.04 5.435 21.99 5.405 30 5.405ZM30 0C21.8525 0 20.83 0.035 17.63 0.18C12.9925 0.3925 8.3875 1.6825 5.035 5.035C1.67 8.4 0.3925 12.995 0.18 17.63C0.035 20.83 0 21.8525 0 30C0 38.1475 0.035 39.17 0.18 42.37C0.3925 47.0025 1.6875 51.62 5.035 54.965C8.3975 58.3275 13 59.6075 17.63 59.82C20.83 59.965 21.8525 60 30 60C38.1475 60 39.17 59.965 42.37 59.82C47.005 59.6075 51.615 58.315 54.965 54.965C58.3325 51.5975 59.6075 47.005 59.82 42.37C59.965 39.17 60 38.1475 60 30C60 21.8525 59.965 20.83 59.82 17.63C59.6075 12.9925 58.315 8.385 54.965 5.035C51.6075 1.6775 46.9925 0.39 42.37 0.18C39.17 0.035 38.1475 0 30 0Z" fill="#EFEFEF"/>
<path d="M30 14.5952C21.4925 14.5952 14.595 21.4927 14.595 30.0002C14.595 38.5077 21.4925 45.4052 30 45.4052C38.5075 45.4052 45.405 38.5077 45.405 30.0002C45.405 21.4927 38.5075 14.5952 30 14.5952ZM30 40.0002C24.4775 40.0002 20 35.5227 20 30.0002C20 24.4777 24.4775 20.0002 30 20.0002C35.5225 20.0002 40 24.4777 40 30.0002C40 35.5227 35.5225 40.0002 30 40.0002Z" fill="#EFEFEF"/>
<path d="M46.015 17.5848C48.0033 17.5848 49.615 15.973 49.615 13.9848C49.615 11.9965 48.0033 10.3848 46.015 10.3848C44.0268 10.3848 42.415 11.9965 42.415 13.9848C42.415 15.973 44.0268 17.5848 46.015 17.5848Z" fill="#EFEFEF"/>
</g>
<defs>
<clipPath id="clip0_0_74">
<rect width="60" height="60" fill="white"/>
</clipPath>
</defs>
</svg>
