<svg width="60" height="60" viewBox="0 0 60 60" fill="none" xmlns="http://www.w3.org/2000/svg">
<g clip-path="url(#clip0_0_71)">
<path fill-rule="evenodd" clip-rule="evenodd" d="M30 0C13.4325 0 0 13.4325 0 30C0 46.5675 13.4325 60 30 60C46.5675 60 60 46.5675 60 30C60 13.4325 46.5675 0 30 0ZM43.905 20.4025C43.455 25.145 41.5 36.6575 40.5075 41.97C40.0875 44.22 39.2575 44.9725 38.4575 45.045C36.715 45.205 35.3925 43.8925 33.705 42.7875C31.065 41.0575 29.5725 39.98 27.01 38.29C24.0475 36.3375 25.9675 35.265 27.655 33.5125C28.0975 33.0525 35.7725 26.07 35.9225 25.4375C35.94 25.3575 35.96 25.0625 35.7825 24.9075C35.605 24.7525 35.3475 24.805 35.1625 24.8475C34.8975 24.9075 30.68 27.695 22.5075 33.21C21.31 34.0325 20.225 34.4325 19.2525 34.4125C18.1825 34.39 16.1225 33.8075 14.59 33.3075C12.7125 32.6975 11.2175 32.3725 11.3475 31.3375C11.415 30.7975 12.1575 30.245 13.5775 29.68C22.3225 25.87 28.155 23.3575 31.0725 22.1425C39.405 18.6775 41.135 18.075 42.265 18.055C43.68 18.035 44.02 19.2025 43.905 20.4025Z" fill="#EFEFEF"/>
</g>
<defs>
<clipPath id="clip0_0_71">
<rect width="60" height="60" fill="white"/>
</clipPath>
</defs>
</svg>
