<svg width="60" height="60" viewBox="0 0 60 60" fill="none" xmlns="http://www.w3.org/2000/svg">
<g clip-path="url(#clip0_0_79)">
<path d="M55.79 4.21C51.58 0 44.8025 0 31.25 0H28.75C15.1975 0 8.42 0 4.21 4.21C0 8.42 0 15.1975 0 28.75V31.25C0 44.8025 0 51.5775 4.21 55.79C8.42 60.0025 15.1975 60 28.75 60H31.25C44.8025 60 51.5775 60 55.79 55.79C60 51.58 60 44.8025 60 31.25V28.75C60 15.1975 60 8.42 55.79 4.21ZM48.7575 42.5H44.3825C42.715 42.5 42.225 41.17 39.2575 38.2025C36.66 35.7 35.5475 35.375 34.9 35.375C34.0175 35.375 33.755 35.625 33.755 36.875V40.7975C33.755 41.8725 33.4125 42.5 30.63 42.5C25.995 42.5 20.9 39.685 17.2825 34.495C11.8575 26.8925 10.375 21.145 10.375 19.9875C10.375 19.3375 10.625 18.75 11.875 18.75H16.2525C17.37 18.75 17.79 19.24 18.21 20.45C20.35 26.6825 23.96 32.13 25.4425 32.13C25.9975 32.13 26.2525 31.8725 26.2525 30.4625V24.02C26.09 21.055 24.5125 20.81 24.5125 19.755C24.5125 19.2675 24.93 18.75 25.625 18.75H32.5025C33.43 18.75 33.7525 19.245 33.7525 20.3575V29.025C33.7525 29.95 34.155 30.275 34.4325 30.275C34.99 30.275 35.4525 29.95 36.4725 28.93C39.625 25.4075 41.85 19.985 41.85 19.985C42.13 19.335 42.64 18.7475 43.755 18.7475H48.13C49.4525 18.7475 49.7325 19.4275 49.4525 20.355C48.895 22.905 43.565 30.4125 43.565 30.4125C43.1 31.155 42.915 31.525 43.565 32.36C44.03 33.01 45.5575 34.3075 46.5775 35.5125C48.4575 37.6275 49.875 39.41 50.27 40.64C50.635 41.875 50.0075 42.5 48.7575 42.5Z" fill="#EFEFEF"/>
</g>
<defs>
<clipPath id="clip0_0_79">
<rect width="60" height="60" fill="white"/>
</clipPath>
</defs>
</svg>
